<svg width="141" height="40" viewBox="0 0 282 80" fill="none" xmlns="http://www.w3.org/2000/svg">
<path d="M250.499 0V60.4534H281.053V53.199H257.783V0H250.499Z" fill="#E4002B"/>
<path d="M215.899 67.5063H204.567C201.128 60.6549 195.057 55.2141 187.571 52.796L195.462 17.733H238.156V51.5869C228.241 52.9975 220.148 59.0428 215.899 67.5063ZM245.238 10.6801H189.392L178.668 58.8413C188.582 58.8413 196.878 65.4912 199.307 74.5592H220.755C223.183 65.4912 231.479 58.8413 241.394 58.8413C242.608 58.8413 243.822 59.0428 245.036 59.0428L245.238 10.6801Z" fill="#E4002B"/>
<path d="M157.827 80C157.827 70.3275 164.301 62.267 173.204 59.6474L184.131 10.6801H160.255L154.791 34.8615H140.02L145.281 10.6801H98.7427L79.7226 46.1461L76.4852 10.6801H4.24918L0 30.2267H15.1756L4.24918 80H28.1255L39.0519 30.2267H54.2276L61.3095 80H83.7695L120.191 17.733L106.432 80H130.308L135.569 55.4156H150.542L145.079 80H157.827Z" fill="#E4002B"/>
<path d="M266.686 17.33C267.091 17.33 267.496 17.33 267.9 17.1285C268.305 16.927 268.507 16.7255 268.912 16.5239C269.317 16.3224 269.317 15.9194 269.519 15.5164C269.721 15.1134 269.721 14.7103 269.721 14.3073C269.721 13.9043 269.721 13.5013 269.519 13.0983C269.317 12.6952 269.114 12.4937 268.912 12.0907C268.71 11.8892 268.305 11.6877 267.9 11.4862C267.496 11.2846 267.091 11.2846 266.686 11.2846C266.282 11.2846 265.877 11.2846 265.472 11.4862C265.068 11.6877 264.865 11.8892 264.461 12.0907C264.258 12.2922 264.056 12.6952 263.854 13.0983C263.651 13.5013 263.651 13.9043 263.651 14.3073C263.651 14.7103 263.651 15.1134 263.854 15.5164C264.056 15.9194 264.258 16.1209 264.461 16.5239C264.663 16.7255 265.068 16.927 265.472 17.1285C265.877 17.33 266.282 17.33 266.686 17.33ZM266.686 17.9345C266.282 17.9345 265.675 17.9345 265.27 17.733C264.865 17.5315 264.461 17.33 264.056 16.927C263.651 16.5239 263.449 16.3224 263.247 15.7179C263.044 15.3149 263.044 14.9119 263.044 14.3073C263.044 13.9043 263.044 13.2998 263.247 12.8967C263.449 12.4937 263.651 12.0907 264.056 11.6877C264.461 11.2846 264.663 11.0831 265.27 10.8816C265.675 10.6801 266.079 10.6801 266.686 10.6801C267.091 10.6801 267.698 10.6801 268.103 10.8816C268.507 11.0831 268.912 11.2846 269.317 11.6877C269.721 12.0907 269.924 12.2922 270.126 12.8967C270.328 13.2998 270.328 13.7028 270.328 14.3073C270.328 14.7103 270.328 15.3149 270.126 15.7179C269.924 16.1209 269.721 16.5239 269.317 16.927C268.912 17.33 268.71 17.5315 268.103 17.733C267.698 17.733 267.091 17.9345 266.686 17.9345Z" fill="#E4002B"/>
<path d="M266.484 14.1059H266.889C267.091 14.1059 267.091 14.1059 267.293 14.1059C267.496 14.1059 267.496 14.1059 267.496 13.9044C267.496 13.9044 267.698 13.7028 267.698 13.5013C267.698 13.2998 267.698 13.2998 267.698 13.0983L267.496 12.8968H267.293C267.091 12.8968 267.091 12.8968 266.889 12.8968H265.877V14.1059H266.484ZM268.103 15.9195H267.698L266.686 14.3074H265.877V15.9195H265.472V12.4938H266.889C267.293 12.4938 267.698 12.4938 267.9 12.6953C268.103 12.8968 268.103 13.0983 268.103 13.2998C268.103 13.5013 268.103 13.7028 268.103 13.7028C268.103 13.9044 267.9 13.9044 267.9 13.9044C267.9 13.9044 267.698 14.1059 267.496 14.1059C267.293 14.1059 267.293 14.1059 267.091 14.1059L268.103 15.9195Z" fill="#E4002B"/>
<path d="M241.596 71.335C246.25 71.335 250.094 75.1637 250.297 79.7985H257.379C257.379 71.1335 250.297 64.0806 241.596 64.0806C232.895 64.0806 225.813 71.1335 225.813 79.7985H232.895C232.895 75.1637 236.74 71.335 241.596 71.335Z" fill="#E4002B"/>
<path d="M178.87 71.335C183.524 71.335 187.368 75.1637 187.571 79.7985H194.653C194.653 71.1335 187.571 64.0806 178.87 64.0806C170.169 64.0806 163.087 71.1335 163.087 79.7985H170.169C170.372 75.1637 174.216 71.335 178.87 71.335Z" fill="#E4002B"/>
</svg>
